<svg xmlns="http://www.w3.org/2000/svg" width="1200" height="780" viewBox="0 0 1200 780" role="img" aria-labelledby="title desc">
  <title id="title">Recipe Hub full-stack application overview</title>
  <desc id="desc">A portfolio graphic summarising an Angular, Express, MongoDB, Socket.IO and AI services recipe-management application.</desc>
  <defs>
    <linearGradient id="bg" x1="0" x2="1" y1="0" y2="1">
      <stop offset="0%" stop-color="#f0fdfa"/>
      <stop offset="56%" stop-color="#ecfeff"/>
      <stop offset="100%" stop-color="#f8fafc"/>
    </linearGradient>
    <filter id="shadow" x="-20%" y="-20%" width="140%" height="140%">
      <feDropShadow dx="0" dy="18" stdDeviation="18" flood-color="#0f172a" flood-opacity="0.16"/>
    </filter>
  </defs>
  <rect width="1200" height="780" fill="url(#bg)"/>
  <circle cx="1045" cy="120" r="190" fill="#0f766e" opacity="0.1"/>
  <circle cx="145" cy="690" r="220" fill="#14b8a6" opacity="0.11"/>
  <rect x="82" y="72" width="1036" height="636" rx="38" fill="#ffffff" filter="url(#shadow)"/>
  <rect x="82" y="72" width="1036" height="92" rx="38" fill="#0f766e"/>
  <circle cx="134" cy="118" r="12" fill="#ccfbf1"/>
  <circle cx="174" cy="118" r="12" fill="#99f6e4"/>
  <circle cx="214" cy="118" r="12" fill="#5eead4"/>
  <text x="270" y="126" fill="#f8fafc" font-family="Inter, Arial, sans-serif" font-size="28" font-weight="800">Recipe Hub</text>
  <text x="918" y="126" fill="#ccfbf1" font-family="Inter, Arial, sans-serif" font-size="18" font-weight="700">FIT2095 Full Stack</text>

  <text x="126" y="228" fill="#0f172a" font-family="Inter, Arial, sans-serif" font-size="46" font-weight="800">Meal planning app</text>
  <text x="126" y="268" fill="#475569" font-family="Inter, Arial, sans-serif" font-size="22">Authenticated recipe and inventory workflows with AI-assisted features.</text>

  <g font-family="Inter, Arial, sans-serif">
    <rect x="126" y="326" width="260" height="172" rx="26" fill="#ecfeff" stroke="#99f6e4"/>
    <text x="156" y="374" fill="#0f766e" font-size="22" font-weight="800">Angular UI</text>
    <text x="156" y="414" fill="#334155" font-size="18">Role dashboards</text>
    <text x="156" y="446" fill="#334155" font-size="18">Recipe forms</text>
    <text x="156" y="478" fill="#334155" font-size="18">Inventory views</text>

    <rect x="470" y="326" width="260" height="172" rx="26" fill="#f8fafc" stroke="#cbd5e1"/>
    <text x="500" y="374" fill="#0f172a" font-size="22" font-weight="800">Express API</text>
    <text x="500" y="414" fill="#334155" font-size="18">Users + auth</text>
    <text x="500" y="446" fill="#334155" font-size="18">Recipe CRUD</text>
    <text x="500" y="478" fill="#334155" font-size="18">Inventory CRUD</text>

    <rect x="814" y="326" width="260" height="172" rx="26" fill="#f0fdfa" stroke="#5eead4"/>
    <text x="844" y="374" fill="#0f766e" font-size="22" font-weight="800">MongoDB</text>
    <text x="844" y="414" fill="#334155" font-size="18">Recipe schema</text>
    <text x="844" y="446" fill="#334155" font-size="18">Inventory schema</text>
    <text x="844" y="478" fill="#334155" font-size="18">User schema</text>

    <path d="M398 412h58" stroke="#14b8a6" stroke-width="8" stroke-linecap="round"/>
    <path d="M742 412h58" stroke="#14b8a6" stroke-width="8" stroke-linecap="round"/>
    <path d="M450 392l28 20-28 20" fill="none" stroke="#14b8a6" stroke-width="8" stroke-linecap="round" stroke-linejoin="round"/>
    <path d="M794 392l28 20-28 20" fill="none" stroke="#14b8a6" stroke-width="8" stroke-linecap="round" stroke-linejoin="round"/>

    <rect x="126" y="548" width="948" height="96" rx="24" fill="#0f172a"/>
    <text x="164" y="590" fill="#ccfbf1" font-size="20" font-weight="800">AI and real-time layer</text>
    <text x="164" y="624" fill="#e2e8f0" font-size="18">Socket.IO connects translation, text-to-speech and recipe health analysis workflows.</text>
  </g>
</svg>
